HIERARCHY
ROOT Hips
{
 OFFSET 0.000000 0.000000 0.000000
 CHANNELS 6 Xposition Yposition Zposition Yrotation Xrotation Zrotation
 JOINT Chest
 {
  OFFSET 0.000000 9.503218 -1.055913
  CHANNELS 3 Yrotation Xrotation Zrotation
  JOINT Chest2
  {
   OFFSET 0.000000 10.521129 0.000000
   CHANNELS 3 Yrotation Xrotation Zrotation
   JOINT Chest3
   {
    OFFSET 0.000000 9.605634 -0.001300
    CHANNELS 3 Yrotation Xrotation Zrotation
    JOINT Chest4
    {
     OFFSET 0.000000 9.594906 -0.001302
     CHANNELS 3 Yrotation Xrotation Zrotation
     JOINT Neck
     {
      OFFSET 0.000000 13.450940 0.000000
      CHANNELS 3 Yrotation Xrotation Zrotation
      JOINT Head
      {
       OFFSET 0.000000 8.933103 0.002797
       CHANNELS 3 Yrotation Xrotation Zrotation
       End Site
       {
        OFFSET 0.000000 16.603328 0.000376
       }
      }
     }
     JOINT RightCollar
     {
      OFFSET -2.929025 7.540715 0.000000
      CHANNELS 3 Yrotation Xrotation Zrotation
      JOINT RightShoulder
      {
       OFFSET -13.689620 0.000000 0.000000
       CHANNELS 3 Yrotation Xrotation Zrotation
       JOINT RightElbow
       {
        OFFSET -29.363669 0.000000 0.000000
        CHANNELS 3 Yrotation Xrotation Zrotation
        JOINT RightWrist
        {
         OFFSET -23.995890 0.000000 0.000000
         CHANNELS 3 Yrotation Xrotation Zrotation
         End Site
         {
          OFFSET -17.894743 0.000000 0.000000
         }
        }
       }
      }
     }
     JOINT LeftCollar
     {
      OFFSET 2.929025 7.540715 0.000000
      CHANNELS 3 Yrotation Xrotation Zrotation
      JOINT LeftShoulder
      {
       OFFSET 13.689620 0.000000 0.000000
       CHANNELS 3 Yrotation Xrotation Zrotation
       JOINT LeftElbow
       {
        OFFSET 29.363669 0.000000 0.000000
        CHANNELS 3 Yrotation Xrotation Zrotation
        JOINT LeftWrist
        {
         OFFSET 23.995890 0.000000 0.000000
         CHANNELS 3 Yrotation Xrotation Zrotation
         End Site
         {
          OFFSET 17.894743 0.000000 0.000000
         }
        }
       }
      }
     }
    }
   }
  }
 }
 JOINT RightHip
 {
  OFFSET -7.818676 0.004256 -0.000473
  CHANNELS 3 Yrotation Xrotation Zrotation
  JOINT RightKnee
  {
   OFFSET 0.000000 -40.741717 -0.000307
   CHANNELS 3 Yrotation Xrotation Zrotation
   JOINT RightAnkle
   {
    OFFSET 0.000000 -39.719668 -0.000517
    CHANNELS 3 Yrotation Xrotation Zrotation
    JOINT RightToe
    {
     OFFSET 0.000000 -6.310187 14.273950
     CHANNELS 3 Yrotation Xrotation Zrotation
     End Site
     {
      OFFSET 0.000000 -1.462847 6.233434
     }
    }
   }
  }
 }
 JOINT LeftHip
 {
  OFFSET 7.818676 0.002110 -0.000234
  CHANNELS 3 Yrotation Xrotation Zrotation
  JOINT LeftKnee
  {
   OFFSET 0.000000 -40.741717 -0.000307
   CHANNELS 3 Yrotation Xrotation Zrotation
   JOINT LeftAnkle
   {
    OFFSET 0.000000 -39.719668 -0.000517
    CHANNELS 3 Yrotation Xrotation Zrotation
    JOINT LeftToe
    {
     OFFSET 0.000000 -6.310187 14.273950
     CHANNELS 3 Yrotation Xrotation Zrotation
     End Site
     {
      OFFSET 0.000000 -1.462847 6.233434
     }
    }
   }
  }
 }
}
MOTION
Frames: 8
Frame Time: 0.016667
-53.508278 88.069982 -49.432331 80.159650 10.556410 0.585471 -3.093246 -2.113385 -2.345241 -1.277242 -6.748976 -1.063481 -1.268432 -0.929975 -1.193168 -1.044615 5.140959 -0.900451 7.436611 15.867720 -0.394057 13.983596 -6.169887 -3.403809 11.990049 3.333219 9.110666 -6.712238 -16.188154 79.839707 17.011656 47.564720 6.576235 0.576786 6.783840 -24.988468 15.097934 3.823826 -6.223535 -10.603169 -18.427056 -59.321395 -41.146497 37.647320 -26.401512 -3.775464 -4.006110 38.693077 -6.378321 -12.168186 -1.521213 -5.171942 4.867725 -0.103490 -16.297726 -2.100688 2.164575 -0.001582 -0.267337 0.678053 4.237740 -15.259950 -1.889893 -1.531181 10.577133 0.884593 9.882483 -6.523574 -10.551386 0.000000 0.000000 0.000000
-53.805005 88.048357 -49.463324 80.411064 10.619375 0.404071 -2.821546 -1.682629 -2.385659 -1.153149 -6.558635 -1.077380 -1.145570 -0.739369 -1.194462 -0.952168 5.283677 -0.901103 7.256509 15.393921 -0.448835 13.709924 -7.056879 -3.496518 11.882459 2.901045 8.699959 -5.641163 -16.736355 79.069979 19.074966 48.311197 7.619081 0.888902 7.083061 -26.256983 14.745863 3.429177 -6.201626 -11.411151 -20.649043 -57.446222 -44.744273 37.402304 -28.150636 -3.714690 -3.621142 40.757317 -6.538418 -12.403443 -1.335879 -5.350177 4.921283 -0.015694 -16.220468 -1.982350 2.173356 -0.001281 -0.269529 0.544466 4.156564 -16.050239 -1.648379 -1.858215 11.523941 0.683295 9.968573 -6.705894 -10.477866 0.000000 0.000000 0.000000
-54.098885 88.026240 -49.501673 80.673095 10.696761 0.210487 -2.570324 -1.264673 -2.427887 -1.037980 -6.373910 -1.092693 -1.031487 -0.554426 -1.198063 -0.866503 5.422163 -0.903569 7.075929 14.931306 -0.497994 13.432349 -7.923984 -3.576049 11.743593 2.489378 8.292503 -4.570429 -17.578511 78.107173 21.523325 49.204886 9.057769 1.192746 7.289719 -27.699057 14.393855 3.062993 -6.153024 -12.675808 -23.059755 -55.380470 -47.866139 37.080618 -29.498242 -3.552586 -3.259354 42.817401 -6.638620 -12.634456 -1.151127 -5.511010 4.947780 0.068770 -16.229824 -1.845791 2.195234 -0.000972 -0.274370 0.406001 4.089967 -16.798147 -1.412945 -2.201760 12.357910 0.490106 10.033809 -6.849773 -10.406340 0.000000 0.000000 0.000000
-54.380779 88.004132 -49.547513 80.951574 10.782749 0.007928 -2.364784 -0.875012 -2.472763 -0.942972 -6.201544 -1.109884 -0.937350 -0.381896 -1.205598 -0.796131 5.551379 -0.909094 6.905805 14.496266 -0.540586 13.169329 -8.739932 -3.642764 11.603534 2.103945 7.900847 -3.585805 -18.752997 76.887040 24.539251 50.281567 11.142182 1.450272 7.392094 -29.392928 14.087817 2.735707 -6.084684 -14.596786 -25.599403 -53.030906 -50.291888 36.718334 -30.283639 -3.277228 -2.953501 44.889492 -6.631896 -12.845020 -0.978672 -5.650893 4.937932 0.145694 -16.377465 -1.688747 2.236686 -0.000652 -0.284132 0.263004 4.120101 -17.478925 -1.211627 -2.660109 13.058514 0.301856 10.092781 -6.960075 -10.334697 0.000000 0.000000 0.000000
-54.659826 87.981532 -49.600709 81.240536 10.883441 -0.206616 -2.179666 -0.497884 -2.520296 -0.856850 -6.034661 -1.128691 -0.851980 -0.214876 -1.215663 -0.732538 5.676479 -0.916592 6.735231 14.072304 -0.576064 12.901790 -9.536354 -3.693596 11.432063 1.737502 7.515656 -2.580346 -20.206853 75.444266 28.121461 51.382244 13.768634 1.651479 7.430034 -31.274815 13.782140 2.436926 -5.989086 -17.073434 -28.253276 -50.359683 -52.251428 36.419396 -30.673654 -2.872281 -2.674782 46.954980 -6.564846 -13.053101 -0.807984 -5.773383 4.900588 0.219459 -16.611713 -1.514062 2.290484 -0.000298 -0.296491 0.115122 4.166811 -18.118299 -1.018470 -3.133398 13.646425 0.122866 10.130839 -7.031920 -10.264769 0.000000 -0.000000 -0.000000
-54.941319 87.960269 -49.662261 81.520115 11.024779 -0.412387 -1.978684 -0.133605 -2.581325 -0.763022 -5.873541 -1.153876 -0.758890 -0.053621 -1.231331 -0.663599 5.797237 -0.928366 6.553720 13.643403 -0.604615 12.611035 -10.343712 -3.726477 11.171881 1.404183 7.127506 -1.511039 -21.931465 73.988344 31.903081 52.281374 16.518279 1.849149 7.424280 -33.182747 13.364697 2.218292 -5.855124 -19.912240 -30.969823 -47.398382 -53.769963 36.314891 -30.758009 -2.449855 -2.392790 48.960522 -6.483555 -13.294421 -0.647975 -5.905956 4.837815 0.285599 -16.843485 -1.325253 2.358256 0.000113 -0.304360 -0.042411 4.067894 -18.768623 -0.795599 -3.429798 14.166465 -0.053084 10.136265 -7.069263 -10.195284 -0.000000 -0.000000 0.000000
-55.236129 87.939700 -49.732672 81.806783 11.238628 -0.605445 -1.758650 0.209351 -2.655500 -0.660101 -5.721995 -1.185328 -0.656685 0.098055 -1.252334 -0.588245 5.910785 -0.944207 6.356333 13.202019 -0.628646 12.289133 -11.176151 -3.744483 10.806401 1.115342 6.727089 -0.435603 -23.979049 72.605072 35.739726 52.972548 19.253689 2.082249 7.373562 -35.108496 12.812494 2.123832 -5.686913 -23.177821 -33.773661 -44.054584 -54.875156 36.529371 -30.617717 -2.021568 -2.124474 50.953556 -6.401377 -13.606665 -0.499065 -6.071574 4.752280 0.346456 -17.057285 -1.124075 2.446137 0.000580 -0.302984 -0.219355 3.671591 -19.488622 -0.489777 -3.399326 14.652676 -0.233826 10.086691 -7.071721 -10.121820 0.000000 0.000000 0.000000
-55.533385 87.920467 -49.811440 82.083768 11.492937 -0.789086 -1.523616 0.539749 -2.744035 -0.549757 -5.576126 -1.223561 -0.547027 0.244041 -1.279363 -0.507766 6.020040 -0.964650 6.147395 12.756021 -0.645739 11.942272 -12.018929 -3.743435 10.351091 0.860244 6.330490 0.724857 -26.303359 71.170103 39.697009 53.437242 22.046373 2.316020 7.291562 -37.073605 12.152146 2.111678 -5.471501 -26.937860 -36.547747 -40.259321 -55.589916 37.001154 -30.262151 -1.559402 -1.883075 52.890973 -6.305091 -13.952094 -0.362154 -6.247321 4.641486 0.399317 -17.268664 -0.908721 2.547836 0.001053 -0.297118 -0.405937 3.125332 -20.214886 -0.143592 -3.189632 15.072247 -0.404099 10.004659 -7.039461 -10.048837 0.000000 -0.000000 0.000000
